# xmcd
#
# Track frame offsets: 
#        150
#        17805
#        34465
#        47350
#        66197
#        82787
#        99195
#        112915
#        126865
#        141297
#        154580
#        173282
#        188570
#        203257
#        220110
#        233205
#        247572
#        259637
#        275647
#        289032
#
# Disc length: 4025 seconds
#
# Revision: 4
# Processed by: cddbd v1.5.2PL0 Copyright (c) Steve Scherf et al.
# Submitted via: ExactAudioCopy v0.95a5
#
DISCID=f90fb714
DTITLE=Kenny Rogers - Country Classics
DYEAR=1990
DGENRE=Country
TTITLE0=Lady
TTITLE1=Don't fall in love with a dreamer (with Kim Carnes)
TTITLE2=Ruby (Don't Take Your Love To Town)
TTITLE3=She believes in me
TTITLE4=Lucille
TTITLE5=You decorated my life
TTITLE6=Every time two fools collide (with Dottie West)
TTITLE7=All I ever need is you (with Dottie West)
TTITLE8=You needed me (with Dottie West)
TTITLE9=Together again (with Dottie West)
TTITLE10=You've lost that lovin' feelin' (with Dottie West)
TTITLE11=Why don't we go somewhere and love
TTITLE12=But you know I love you
TTITLE13=Love lifted me
TTITLE14=Love or something like it
TTITLE15=(Hey Would You Play) Another somebody done somebody wrong son
TTITLE15=g (with Dottie West)
TTITLE16=My world begins and ends with you
TTITLE17=Just the way you are (with Dottie West)
TTITLE18=You and me (with Dottie West)
TTITLE19=We love each other
EXTD=YEAR: 1990
EXTT0=
EXTT1=
EXTT2=
EXTT3=
EXTT4=
EXTT5=
EXTT6=
EXTT7=
EXTT8=
EXTT9=
EXTT10=
EXTT11=
EXTT12=
EXTT13=
EXTT14=
EXTT15=Hey won't you play
EXTT16=
EXTT17=
EXTT18=
EXTT19=
PLAYORDER=
